<svg id="Logos" xmlns="http://www.w3.org/2000/svg" viewBox="0 0 800 200"><defs><style>.cls-1{fill:#fff;}</style></defs><path class="cls-1" d="M285.7,47.27,245.52,153.13h20.54l8.54-24.75h41.83l8.4,24.75h20.69L306.84,47.27Zm-6.45,66.12c9.3-25.94,13.05-36.44,16.49-47.08,4.95,15.44,10.05,29.84,16,47.08Z"/><path class="cls-1" d="M393.87,77A28.72,28.72,0,0,0,370.52,88.5V47.27H352.94V153.13h16.79v-9.75c5.11,7.35,12,11.25,22.2,11.25,18.44,0,30.74-14.4,30.74-38.84S411.42,77,393.87,77Zm-6.29,63c-11.1,0-17.55-9.14-17.55-25,0-14.24,7.5-23.24,18.15-23.24,10,0,16.19,9.15,16.19,24.14C404.37,131.69,397.93,139.93,387.58,139.93Z"/><path class="cls-1" d="M459.54,89.73c7.21,0,12.91,3.9,16.66,10.51l13.07-8.86c-6.61-10.51-17.57-15-29.43-15-18.47,0-29,10.81-29,22.52,0,11.41,7.35,18.17,18.91,21.77l8,2.55c11.26,3.6,13.81,5.7,13.81,10.66,0,4.5-4.2,7.81-11.86,7.81-8.26,0-15.16-4.51-19.06-12.17l-13.66,9c6.3,9.46,16.66,16.82,32,16.82,18.62,0,30.17-10.06,30.17-23.88,0-12-7.5-18.16-20.71-22.37l-8-2.4c-9.61-3-12-5.1-12-9.6S452,89.73,459.54,89.73Z"/><path class="cls-1" d="M524.81,130V92.58h14.46V78.51H524.81V54.1H507.34L507,78.51H495.32V92.58H507v40.9c0,6.92,1.06,12.19,4.21,15.8s8,5.41,15.33,5.41A53,53,0,0,0,539.66,153v-14a21.79,21.79,0,0,1-7.22,1.35C527,140.4,524.81,137.7,524.81,130Z"/><path class="cls-1" d="M566,90V78.51h-16.8v75H566.8v-35c0-8,1.32-13.28,3.91-17.18,3.26-4.68,7.92-7.51,16-7.42a23.88,23.88,0,0,1,6.44,1V78.51a20.82,20.82,0,0,0-6.44-1C576.37,77.54,570.52,81.91,566,90Z"/><path class="cls-1" d="M660.55,133V106c0-11.72-1.57-17.87-6.23-22.23-5-4.81-12.17-7.21-22.38-7.21-19.08,0-31.12,9-32.32,25.24l16.85,1.5c.9-8.26,4.95-12.92,14.12-12.92,4.66,0,8.26,1,10.36,3.15s2.86,4.81,2.86,9v4c-11.87.76-26.29,2.86-33.65,6.16-8.86,4.06-13.67,10.37-13.67,20,0,13.37,9.61,21.94,23.28,21.94,10.66,0,18.77-3.75,24.48-10.66,1.63,7.47,6.89,10.23,16.29,10.23a24.07,24.07,0,0,0,8-1.2V141.6C661.78,142.82,660.6,138.85,660.55,133Zm-16.74-11.26c-.16,4.2-.9,8.41-3.31,11.87-3.3,4.95-8.86,7.81-15.62,7.81-7.81,0-11.42-4.06-11.42-9.46,0-4.21,1.8-7.07,6.46-9.17,5.26-2.55,15.33-4.06,23.89-4.51Z"/><path class="cls-1" d="M708.74,140.57c-11.55,0-18.46-8.7-18.46-25.2,0-16.65,7.81-24.3,18-24.3,7.05,0,12.45,3.3,14.56,13.2l15.76-5.4c-3.46-13.35-13.66-22.5-29.88-22.5-22.36,0-36.47,14.85-36.47,39.3,0,24.6,13.81,39.6,35.57,39.6,17,0,26.87-9,31.23-21.45l-15.76-5.4C721.5,136.37,716.7,140.57,708.74,140.57Z"/><path class="cls-1" d="M772.47,130V92.58h14.45V78.51H772.47V54.1H755l-.31,24.41H743V92.58h11.72v40.9c0,6.92,1.06,12.19,4.21,15.8s8,5.41,15.33,5.41A53,53,0,0,0,787.31,153v-14a21.78,21.78,0,0,1-7.21,1.35C774.68,140.4,772.47,137.7,772.47,130Z"/><path class="cls-1" d="M100.47,0C20.47-.21.42,19.74.21,99.74S19.94,199.79,99.94,200,200,180.26,200.21,100.26,180.47.21,100.47,0ZM83.8,154.69a38.28,38.28,0,1,1,38.28-38.28A38.33,38.33,0,0,1,83.8,154.69Zm69.53-1.57H134.58V65.63H47.08V46.88H153.33Z"/><path class="cls-1" d="M83.8,96.88a19.53,19.53,0,1,0,19.53,19.53A19.55,19.55,0,0,0,83.8,96.88Z"/><path class="cls-1" d="M791,54.1a8.83,8.83,0,1,0,8.79,8.83A8.53,8.53,0,0,0,791,54.1Zm0,16.25a7.07,7.07,0,0,1-7.21-7.42,7.2,7.2,0,1,1,14.39,0A7.07,7.07,0,0,1,791,70.35Z"/><path class="cls-1" d="M795.14,61.08c0-1.95-1.28-3.06-3.58-3.06h-4.19v9.65h2.42V64h1.06l1.92,3.68h2.66l-2.21-4A2.71,2.71,0,0,0,795.14,61.08Zm-4,1.25h-1.32V59.8h1.32c1,0,1.54.42,1.54,1.28S792.09,62.33,791.11,62.33Z"/></svg>